<svg width="600" height="400" xmlns="http://www.w3.org/2000/svg">
<rect width="100%" height="100%" fill="#1E293B" />
<text x="300.0" y="30.0" fill="white" font-family="Inter, sans-serif" font-size="16" text-anchor="middle" font-weight="bold">Foul Type Balanced Accuracy</text>
<line x1="60" y1="340" x2="540" y2="340" stroke="#94A3B8" stroke-width="1" />
<line x1="60" y1="340" x2="60" y2="60" stroke="#94A3B8" stroke-width="1" />
<text x="300.0" y="385" fill="#94A3B8" font-family="Inter, sans-serif" font-size="12" text-anchor="middle">Epoch</text>
<text x="15" y="200.0" fill="#94A3B8" font-family="Inter, sans-serif" font-size="12" text-anchor="middle" transform="rotate(-90, 15, 200.0)">accuracy</text>
<line x1="60" y1="340.0" x2="540" y2="340.0" stroke="#334155" stroke-width="1" stroke-dasharray="4" />
<text x="50" y="344.0" fill="#94A3B8" font-family="monospace" font-size="10" text-anchor="end">0.08</text>
<line x1="60" y1="284.0" x2="540" y2="284.0" stroke="#334155" stroke-width="1" stroke-dasharray="4" />
<text x="50" y="288.0" fill="#94A3B8" font-family="monospace" font-size="10" text-anchor="end">0.08</text>
<line x1="60" y1="228.0" x2="540" y2="228.0" stroke="#334155" stroke-width="1" stroke-dasharray="4" />
<text x="50" y="232.0" fill="#94A3B8" font-family="monospace" font-size="10" text-anchor="end">0.09</text>
<line x1="60" y1="172.0" x2="540" y2="172.0" stroke="#334155" stroke-width="1" stroke-dasharray="4" />
<text x="50" y="176.0" fill="#94A3B8" font-family="monospace" font-size="10" text-anchor="end">0.10</text>
<line x1="60" y1="116.0" x2="540" y2="116.0" stroke="#334155" stroke-width="1" stroke-dasharray="4" />
<text x="50" y="120.0" fill="#94A3B8" font-family="monospace" font-size="10" text-anchor="end">0.11</text>
<line x1="60" y1="60.0" x2="540" y2="60.0" stroke="#334155" stroke-width="1" stroke-dasharray="4" />
<text x="50" y="64.0" fill="#94A3B8" font-family="monospace" font-size="10" text-anchor="end">0.11</text>
<rect x="440" y="60" width="10" height="10" fill="#10B981"/>
<text x="455" y="69" fill="#E2E8F0" font-family="Inter, sans-serif" font-size="10">Single-View Baseline</text>
<circle cx="60.0" cy="279.3001186239621" r="4" fill="#10B981" />
<circle cx="300.0" cy="255.21945432977463" r="4" fill="#10B981" />
<circle cx="540.0" cy="241.93357058125753" r="4" fill="#10B981" />
<path d="M 60.0 279.3001186239621 L 300.0 255.21945432977463 L 540.0 241.93357058125753" stroke="#10B981" stroke-width="2" fill="none" />
<rect x="440" y="80" width="10" height="10" fill="#3B82F6"/>
<text x="455" y="89" fill="#E2E8F0" font-family="Inter, sans-serif" font-size="10">Multi-View Baseline</text>
<circle cx="60.0" cy="316.66666666666674" r="4" fill="#3B82F6" />
<circle cx="300.0" cy="218.68327402135245" r="4" fill="#3B82F6" />
<circle cx="540.0" cy="83.33333333333343" r="4" fill="#3B82F6" />
<path d="M 60.0 316.66666666666674 L 300.0 218.68327402135245 L 540.0 83.33333333333343" stroke="#3B82F6" stroke-width="2" fill="none" />
</svg>